<?xml version="1.0" encoding="UTF-8" standalone="no"?>
<!-- Created with Inkscape (http://www.inkscape.org/) -->

<svg
   xmlns:dc="http://purl.org/dc/elements/1.1/"
   xmlns:cc="http://creativecommons.org/ns#"
   xmlns:rdf="http://www.w3.org/1999/02/22-rdf-syntax-ns#"
   xmlns:svg="http://www.w3.org/2000/svg"
   xmlns="http://www.w3.org/2000/svg"
   xmlns:sodipodi="http://sodipodi.sourceforge.net/DTD/sodipodi-0.dtd"
   xmlns:inkscape="http://www.inkscape.org/namespaces/inkscape"
   width="465.00058"
   height="170.91417"
   id="svg2"
   version="1.1"
   inkscape:version="0.48.2 r9819"
   sodipodi:docname="Novo documento 1">
  <defs
     id="defs4">
 <style
   id="style2989"
   type="text/css">

    .fil0 {fill:none}
    .fil1 {fill:#FFFFFF}

  </style>

  </defs>
  <sodipodi:namedview
     id="base"
     pagecolor="#ffffff"
     borderopacity="1.0"
     inkscape:pageopacity="0.0"
     inkscape:pageshadow="2"
     inkscape:zoom="0.35"
     inkscape:cx="242.50029"
     inkscape:cy="65.457083"
     inkscape:document-units="px"
     inkscape:current-layer="layer1"
     showgrid="false"
     fit-margin-top="0"
     fit-margin-left="0"
     fit-margin-right="0"
     fit-margin-bottom="0"
     inkscape:window-width="514"
     inkscape:window-height="425"
     inkscape:window-x="125"
     inkscape:window-y="125"
     inkscape:window-maximized="0" />
  <metadata
     id="metadata7">
    <rdf:RDF>
      <cc:Work
         rdf:about="">
        <dc:format>image/svg+xml</dc:format>
        <dc:type
           rdf:resource="http://purl.org/dc/dcmitype/StillImage" />
        <dc:title></dc:title>
      </cc:Work>
    </rdf:RDF>
  </metadata>
  <g
     inkscape:label="Camada 1"
     inkscape:groupmode="layer"
     id="layer1"
     transform="translate(-107.49971,-426.9051)">
    <g
       style="fill-rule:evenodd"
       id="g3010"
       transform="matrix(3.543307,0,0,3.543307,-44.871349,20.848763)">
      <g
         id="Camada_x0020_1">
  <metadata
   id="CorelCorpID_0Corel-Layer" />

  <path
   id="path2993"
   d="m 66.1095,132.617 c -9.8362,-2.0419 -3.6038,-10.0383 11.9945,0.1764 l 7.2319,-10.7597 c -21.0891,-14.6882 -39.705,-4.9921 -39.9804,6.5339 -0.2399,10.0413 6.1534,14.7558 17.579,17.1022 14.9307,0.8356 6.2289,10.6252 -11.5535,-1.2347 l -8.3785,10.407 c 18.3806,13.7766 41.7522,8.4556 42.8626,-6.1736 0.8461,-10.2958 -6.2094,-15.8815 -19.7556,-16.0515 z"
   class="fil0"
   inkscape:connector-curvature="0"
   style="fill:none" />

  <polygon
   id="polygon2995"
   points="103.945,141.524 120.878,161.28 134.46,161.28 134.46,115.948 119.115,115.948 119.115,136.145 103.151,116.036 88.5109,116.036 88.5991,161.28 103.945,161.28 "
   class="fil0"
   style="fill:none" />

  <polygon
   id="polygon2997"
   points="174.236,161.28 138.253,161.28 138.253,116.213 153.07,116.213 153.07,148.051 174.148,148.051 "
   class="fil0"
   style="fill:none" />

  <polygon
   id="polygon2999"
   points="153.07,116.213 138.253,116.213 138.253,161.28 174.236,161.28 174.148,148.051 153.07,148.051 "
   class="fil1"
   style="" />

  <polygon
   id="polygon3001"
   points="88.5109,116.036 88.5991,161.28 103.945,161.28 103.945,141.524 120.878,161.28 134.46,161.28 134.46,115.948 119.115,115.948 119.115,136.145 103.151,116.036 "
   class="fil1"
   style="fill:#FFFFFF" />

  <path
   id="path3003"
   d="m 85.8651,148.668 c 0.8461,-10.2958 -6.2094,-15.8815 -19.7556,-16.0515 -9.8362,-2.0419 -3.6038,-10.0383 11.9945,0.1764 l 7.2319,-10.7597 c -21.0891,-14.6882 -39.705,-4.9921 -39.9804,6.5339 -0.2399,10.0413 6.1534,14.7558 17.579,17.1022 14.7984,1.6293 6.2289,10.6252 -11.5535,-1.2347 l -8.3785,10.407 c 18.3806,13.7766 41.7522,8.4556 42.8626,-6.1736 z"
   class="fil1"
   inkscape:connector-curvature="0"
   style="fill:#FFFFFF" />

 </g>
    </g>
  </g>
</svg>
